<?xml version="1.0" encoding="iso-8859-1"?>
<!-- Generator: Adobe Illustrator 19.0.0, SVG Export Plug-In . SVG Version: 6.00 Build 0)  -->
<svg version="1.1" id="Layer_1" xmlns="http://www.w3.org/2000/svg" xmlns:xlink="http://www.w3.org/1999/xlink" x="0px" y="0px"
	 viewBox="0 0 512.004 512.004" style="enable-background:new 0 0 512.004 512.004;" xml:space="preserve">
<g>
	<g>
		<g>
			<path d="M168.166,104.913c-2.458-2.458-6.153-3.192-9.344-1.826c-3.2,1.34-5.265,4.497-5.222,7.962
				c0.008,0.905,0.367,90.547-56.636,147.541l-60.339,60.348c0,0-0.009,0.009-0.017,0.009c-0.008,0-0.008,0.017-0.008,0.017
				l-24.098,24.098C4.437,351.125,0,361.835,0,373.227c0,11.401,4.437,22.118,12.501,30.174l6.033,6.033
				c-3.226,3.226-5.001,7.509-5.001,12.075c0,4.557,1.775,8.841,5.001,12.066L48.7,463.748c6.648,6.639,17.485,6.647,24.132-0.009
				l6.033,6.033c8.055,8.064,18.773,12.501,30.174,12.501s22.11-4.437,30.165-12.501l18.108-18.099l55.339,55.339
				c3.328,3.328,7.697,4.992,12.066,4.992c4.369,0,8.738-1.664,12.066-4.992l15.599-15.599c6.656-6.656,6.656-17.485,0-24.141
				l-17.067-17.067c1.818-3.917,3.618-9.242,3.618-14.993c0-4.71-3.814-8.533-8.533-8.533h-25.95c-4.719,0-8.533,3.823-8.533,8.533
				c0,4.71,3.814,8.533,8.533,8.533h15.044c-0.666,1.331-1.314,2.381-1.707,2.961c-2.44,3.396-2.057,8.047,0.896,10.999
				l21.632,21.641l-15.599,15.599l-61.372-61.372c-3.2-3.2-8.875-3.2-12.075,0l-24.132,24.132c-9.66,9.668-26.539,9.668-36.207,0
				l-12.066-12.066c-3.328-3.328-8.73-3.328-12.066,0l-6.033,6.033l-30.165-30.165l6.033-6.042c3.337-3.337,3.337-8.738,0-12.066
				l-12.066-12.066c-4.838-4.838-7.501-11.264-7.501-18.108c0-6.835,2.662-13.261,7.501-18.099l18.125-18.125l87.834,87.202
				c1.655,1.647,3.831,2.475,6.007,2.475c2.193,0,4.395-0.845,6.059-2.517c3.32-3.354,3.302-8.755-0.051-12.066L54.75,324.937
				l54.281-54.281c45.764-45.747,57.574-108.57,60.604-140.143l178.551,178.543c-17.365,2.475-44.911,8.26-73.89,21.461
				L171.102,227.315c-3.337-3.337-8.738-3.337-12.066,0c-3.336,3.328-3.336,8.73,0,12.066l99.174,99.174
				c-16.06,8.849-32.077,20.156-46.592,34.68l-36.198,36.198c-3.337,3.337-3.337,8.738,0,12.075c3.328,3.328,8.73,3.328,12.066,0
				l36.198-36.207c57.139-57.148,142.711-60.996,143.556-61.022c3.396-0.137,6.391-2.261,7.637-5.419
				c1.237-3.157,0.486-6.75-1.911-9.148L168.166,104.913z"/>
			<path d="M281.515,102.498c-4.719,0-8.533,3.814-8.533,8.533c0,4.71,3.814,8.533,8.533,8.533c19.072,0,54.955,3.883,80.998,29.935
				c26.044,26.052,29.935,61.926,29.935,80.998c0,4.71,3.814,8.533,8.533,8.533c4.719,0,8.533-3.823,8.533-8.533
				c0-21.709-4.54-62.66-34.935-93.073C344.183,107.038,303.224,102.498,281.515,102.498z"/>
			<path d="M446.985,65.02C403.968,22.012,343.569-1.728,281.276,0.098c-4.71,0.137-8.414,4.062-8.294,8.772
				c0.145,4.71,3.994,8.508,8.781,8.286c57.472-1.57,113.442,20.233,153.156,59.93c39.697,39.697,61.551,95.531,59.93,153.173
				c-0.119,4.71,3.584,8.636,8.294,8.764c0.085,0.008,0.162,0.008,0.247,0.008c4.599,0,8.397-3.669,8.525-8.294
				C513.656,168.418,489.993,108.019,446.985,65.02z"/>
			<path d="M284.382,51.273c-0.99,0-1.997,0.009-2.995,0.026c-4.71,0.077-8.482,3.951-8.405,8.661
				c0.077,4.668,3.874,8.405,8.533,8.405h0.137c44.894-0.888,87.817,15.684,117.069,44.928
				c29.884,29.901,46.276,72.525,44.928,116.941c-0.137,4.719,3.567,8.653,8.277,8.789c0.094,0.008,0.179,0.008,0.265,0.008
				c4.591,0,8.388-3.652,8.525-8.277c1.476-49.101-16.725-96.316-49.929-129.527C378.931,69.389,333.013,51.273,284.382,51.273z"/>
		</g>
	</g>
</g>
<g>
</g>
<g>
</g>
<g>
</g>
<g>
</g>
<g>
</g>
<g>
</g>
<g>
</g>
<g>
</g>
<g>
</g>
<g>
</g>
<g>
</g>
<g>
</g>
<g>
</g>
<g>
</g>
<g>
</g>
</svg>
