<?xml version="1.0" encoding="iso-8859-1"?>
<!-- Generator: Adobe Illustrator 19.0.0, SVG Export Plug-In . SVG Version: 6.00 Build 0)  -->
<svg version="1.1" id="Layer_1" xmlns="http://www.w3.org/2000/svg" xmlns:xlink="http://www.w3.org/1999/xlink" x="0px" y="0px"
	 viewBox="0 0 478 478" style="enable-background:new 0 0 478 478;" xml:space="preserve">
<g>
	<g>
		<path d="M468.004,24.5H239H9.996C4.498,24.5,0,28.997,0,34.493v409.014c0,5.496,4.498,9.993,9.996,9.993H239h229.004
			c5.498,0,9.996-4.497,9.996-9.993V34.493C478,28.897,473.602,24.5,468.004,24.5z M49.979,433.414H19.992V239.45h29.987V433.414z
			 M49.979,219.464H19.992v-28.98h29.987V219.464z M49.979,170.498H19.992v-28.18h29.987V170.498z M49.979,122.332H19.992v-28.98
			h29.987V122.332z M49.979,73.466H19.992v-28.98h29.987V73.466z M229.004,82.859L229.004,82.859l-19.892,0
			c-5.498,0-9.996,4.497-9.996,9.993c0,5.496,4.498,9.993,9.996,9.993h19.892v38.473h-19.892c-5.498,0-9.996,4.497-9.996,9.993
			s4.498,9.993,9.996,9.993h19.892v38.473h-19.892c-5.498,0-9.996,4.497-9.996,9.993c0,5.496,4.498,9.993,9.996,9.993h19.892v38.473
			h-19.892c-5.498,0-9.996,4.497-9.996,9.993s4.498,9.993,9.996,9.993h19.892v38.473h-19.892c-5.498,0-9.996,4.497-9.996,9.993
			c0,5.496,4.498,9.993,9.996,9.993h19.892v38.473h-19.892c-5.498,0-9.996,4.497-9.996,9.993s4.498,9.993,9.996,9.993h19.892v38.473
			H69.971V44.586h159.034V82.859z M458.008,433.414H248.996v-38.473h19.892c5.498,0,9.996-4.497,9.996-9.993
			s-4.498-9.993-9.996-9.993h-19.892v-38.473h19.892c5.498,0,9.996-4.497,9.996-9.993s-4.498-9.993-9.996-9.993h-19.892v-38.473
			h19.892c5.498,0,9.996-4.497,9.996-9.993c0-5.496-4.498-9.993-9.996-9.993h-19.892v-38.473h19.892
			c5.498,0,9.996-4.497,9.996-9.993s-4.498-9.993-9.996-9.993h-19.892v-38.473h19.892c5.498,0,9.996-4.497,9.996-9.993
			c0-5.496-4.498-9.993-9.996-9.993h-19.892v-38.473h19.892c5.498,0,9.996-4.497,9.996-9.993s-4.498-9.993-9.996-9.993h-19.892
			V44.187h209.013V433.414z"/>
	</g>
</g>
<g>
</g>
<g>
</g>
<g>
</g>
<g>
</g>
<g>
</g>
<g>
</g>
<g>
</g>
<g>
</g>
<g>
</g>
<g>
</g>
<g>
</g>
<g>
</g>
<g>
</g>
<g>
</g>
<g>
</g>
</svg>
